<svg xmlns="http://www.w3.org/2000/svg" xmlns:xlink="http://www.w3.org/1999/xlink" width="500" zoomAndPan="magnify" viewBox="0 0 375 374.999991" height="500" preserveAspectRatio="xMidYMid meet" version="1.0"><defs><g/></defs><g fill="#ffffff" fill-opacity="1"><g transform="translate(18.269535, 130.874991)"><g><path d="M 1.03125 -35.96875 L 27.640625 -35.96875 L 27.640625 -28.765625 L 18.4375 -28.765625 L 18.4375 0 L 10.171875 0 L 10.171875 -28.765625 L 1.03125 -28.765625 Z M 1.03125 -35.96875 "/></g></g></g><g fill="#ffffff" fill-opacity="1"><g transform="translate(46.936799, 130.874991)"><g><path d="M 19.734375 -10.78125 L 19.734375 -28.359375 L 27.640625 -28.359375 L 27.640625 0 L 19.734375 0 L 19.734375 -3.59375 C 18.910156 -2.332031 17.835938 -1.316406 16.515625 -0.546875 C 15.203125 0.222656 13.65625 0.609375 11.875 0.609375 C 8.988281 0.609375 6.710938 -0.3125 5.046875 -2.15625 C 3.390625 -4.007812 2.5625 -6.695312 2.5625 -10.21875 L 2.5625 -28.359375 L 10.53125 -28.359375 L 10.53125 -11.359375 C 10.53125 -8.140625 11.867188 -6.53125 14.546875 -6.53125 C 15.703125 -6.53125 16.742188 -6.921875 17.671875 -7.703125 C 18.597656 -8.492188 19.285156 -9.519531 19.734375 -10.78125 Z M 19.734375 -10.78125 "/></g></g></g><g fill="#ffffff" fill-opacity="1"><g transform="translate(77.453567, 130.874991)"><g><path d="M 17.3125 -28.875 C 17.6875 -28.875 18.125 -28.847656 18.625 -28.796875 C 19.125 -28.742188 19.613281 -28.648438 20.09375 -28.515625 L 19.3125 -20.90625 C 18.90625 -20.976562 18.398438 -21.019531 17.796875 -21.03125 C 17.203125 -21.050781 16.679688 -21.0625 16.234375 -21.0625 C 14.554688 -21.0625 13.238281 -20.296875 12.28125 -18.765625 C 11.320312 -17.242188 10.84375 -15.148438 10.84375 -12.484375 L 10.84375 0 L 2.875 0 L 2.875 -28.359375 L 10.84375 -28.359375 L 10.84375 -24.8125 C 12.207031 -27.519531 14.363281 -28.875 17.3125 -28.875 Z M 17.3125 -28.875 "/></g></g></g><g fill="#ffffff" fill-opacity="1"><g transform="translate(97.643953, 130.874991)"><g><path d="M 18.65625 -28.96875 C 21.5625 -28.96875 23.835938 -28.039062 25.484375 -26.1875 C 27.128906 -24.34375 27.953125 -21.660156 27.953125 -18.140625 L 27.953125 0 L 20.03125 0 L 20.03125 -17 C 20.03125 -20.1875 18.679688 -21.78125 15.984375 -21.78125 C 14.816406 -21.78125 13.78125 -21.394531 12.875 -20.625 C 11.96875 -19.851562 11.269531 -18.816406 10.78125 -17.515625 L 10.78125 0 L 2.875 0 L 2.875 -28.359375 L 10.78125 -28.359375 L 10.78125 -24.765625 C 11.601562 -25.992188 12.675781 -27 14 -27.78125 C 15.320312 -28.570312 16.875 -28.96875 18.65625 -28.96875 Z M 18.65625 -28.96875 "/></g></g></g><g fill="#ffffff" fill-opacity="1"><g transform="translate(128.160721, 130.874991)"><g><path d="M 26.296875 -11.765625 L 9.609375 -11.765625 C 9.953125 -9.773438 10.675781 -8.316406 11.78125 -7.390625 C 12.894531 -6.472656 14.3125 -6.015625 16.03125 -6.015625 C 17.125 -6.015625 18.285156 -6.164062 19.515625 -6.46875 C 20.753906 -6.78125 21.867188 -7.257812 22.859375 -7.90625 L 24.5 -1.84375 C 23.164062 -0.988281 21.726562 -0.375 20.1875 0 C 18.644531 0.375 17.019531 0.5625 15.3125 0.5625 C 12.632812 0.5625 10.269531 -0.0390625 8.21875 -1.25 C 6.164062 -2.46875 4.554688 -4.179688 3.390625 -6.390625 C 2.222656 -8.597656 1.640625 -11.210938 1.640625 -14.234375 C 1.640625 -17.109375 2.175781 -19.648438 3.25 -21.859375 C 4.332031 -24.066406 5.882812 -25.796875 7.90625 -27.046875 C 9.925781 -28.296875 12.304688 -28.921875 15.046875 -28.921875 C 17.453125 -28.921875 19.5625 -28.390625 21.375 -27.328125 C 23.1875 -26.265625 24.597656 -24.816406 25.609375 -22.984375 C 26.617188 -21.148438 27.125 -19.035156 27.125 -16.640625 C 27.125 -15.753906 27.046875 -14.890625 26.890625 -14.046875 C 26.734375 -13.210938 26.535156 -12.453125 26.296875 -11.765625 Z M 14.796875 -22.40625 C 11.847656 -22.40625 10.117188 -20.484375 9.609375 -16.640625 L 19.421875 -16.703125 C 19.390625 -18.617188 18.960938 -20.046875 18.140625 -20.984375 C 17.316406 -21.929688 16.203125 -22.40625 14.796875 -22.40625 Z M 14.796875 -22.40625 "/></g></g></g><g fill="#ffffff" fill-opacity="1"><g transform="translate(156.930742, 130.874991)"><g><path d="M 16.125 -32.578125 C 15.164062 -32.578125 14.421875 -32.289062 13.890625 -31.71875 C 13.359375 -31.15625 13.09375 -30.222656 13.09375 -28.921875 L 13.09375 -28.359375 L 19.9375 -28.359375 L 19.9375 -21.734375 L 13.09375 -21.734375 L 13.09375 0 L 5.1875 0 L 5.1875 -21.734375 L 1.28125 -21.734375 L 1.28125 -28.359375 L 5.1875 -28.359375 L 5.1875 -29.390625 C 5.1875 -32.609375 6.035156 -35.0625 7.734375 -36.75 C 9.429688 -38.445312 11.734375 -39.296875 14.640625 -39.296875 C 15.941406 -39.296875 17.128906 -39.21875 18.203125 -39.0625 C 19.285156 -38.914062 20.207031 -38.722656 20.96875 -38.484375 L 20.140625 -32.21875 C 19.523438 -32.351562 18.878906 -32.445312 18.203125 -32.5 C 17.535156 -32.550781 16.84375 -32.578125 16.125 -32.578125 Z M 16.125 -32.578125 "/></g></g></g><g fill="#ffffff" fill-opacity="1"><g transform="translate(177.789006, 130.874991)"><g><path d="M 16.125 -32.578125 C 15.164062 -32.578125 14.421875 -32.289062 13.890625 -31.71875 C 13.359375 -31.15625 13.09375 -30.222656 13.09375 -28.921875 L 13.09375 -28.359375 L 19.9375 -28.359375 L 19.9375 -21.734375 L 13.09375 -21.734375 L 13.09375 0 L 5.1875 0 L 5.1875 -21.734375 L 1.28125 -21.734375 L 1.28125 -28.359375 L 5.1875 -28.359375 L 5.1875 -29.390625 C 5.1875 -32.609375 6.035156 -35.0625 7.734375 -36.75 C 9.429688 -38.445312 11.734375 -39.296875 14.640625 -39.296875 C 15.941406 -39.296875 17.128906 -39.21875 18.203125 -39.0625 C 19.285156 -38.914062 20.207031 -38.722656 20.96875 -38.484375 L 20.140625 -32.21875 C 19.523438 -32.351562 18.878906 -32.445312 18.203125 -32.5 C 17.535156 -32.550781 16.84375 -32.578125 16.125 -32.578125 Z M 16.125 -32.578125 "/></g></g></g><g fill="#ffffff" fill-opacity="1"><g transform="translate(198.647269, 130.874991)"><g><path d="M 26.296875 -11.765625 L 9.609375 -11.765625 C 9.953125 -9.773438 10.675781 -8.316406 11.78125 -7.390625 C 12.894531 -6.472656 14.3125 -6.015625 16.03125 -6.015625 C 17.125 -6.015625 18.285156 -6.164062 19.515625 -6.46875 C 20.753906 -6.78125 21.867188 -7.257812 22.859375 -7.90625 L 24.5 -1.84375 C 23.164062 -0.988281 21.726562 -0.375 20.1875 0 C 18.644531 0.375 17.019531 0.5625 15.3125 0.5625 C 12.632812 0.5625 10.269531 -0.0390625 8.21875 -1.25 C 6.164062 -2.46875 4.554688 -4.179688 3.390625 -6.390625 C 2.222656 -8.597656 1.640625 -11.210938 1.640625 -14.234375 C 1.640625 -17.109375 2.175781 -19.648438 3.25 -21.859375 C 4.332031 -24.066406 5.882812 -25.796875 7.90625 -27.046875 C 9.925781 -28.296875 12.304688 -28.921875 15.046875 -28.921875 C 17.453125 -28.921875 19.5625 -28.390625 21.375 -27.328125 C 23.1875 -26.265625 24.597656 -24.816406 25.609375 -22.984375 C 26.617188 -21.148438 27.125 -19.035156 27.125 -16.640625 C 27.125 -15.753906 27.046875 -14.890625 26.890625 -14.046875 C 26.734375 -13.210938 26.535156 -12.453125 26.296875 -11.765625 Z M 14.796875 -22.40625 C 11.847656 -22.40625 10.117188 -20.484375 9.609375 -16.640625 L 19.421875 -16.703125 C 19.390625 -18.617188 18.960938 -20.046875 18.140625 -20.984375 C 17.316406 -21.929688 16.203125 -22.40625 14.796875 -22.40625 Z M 14.796875 -22.40625 "/></g></g></g><g fill="#ffffff" fill-opacity="1"><g transform="translate(227.417302, 130.874991)"><g/></g></g><g fill="#ffffff" fill-opacity="1"><g transform="translate(241.596805, 130.874991)"><g><path d="M 34.78125 0 L 26.15625 0 L 24.046875 -6.53125 L 11.046875 -6.53125 L 8.9375 0 L 0.40625 0 L 13.15625 -35.96875 L 21.984375 -35.96875 Z M 17.5625 -26.40625 L 13.09375 -12.84375 L 21.984375 -12.84375 Z M 17.5625 -26.40625 "/></g></g></g><g fill="#ffffff" fill-opacity="1"><g transform="translate(276.788713, 130.874991)"><g><path d="M 13.453125 0.609375 C 10.578125 0.609375 8.367188 -0.164062 6.828125 -1.71875 C 5.285156 -3.28125 4.515625 -5.617188 4.515625 -8.734375 L 4.515625 -21.734375 L 1.328125 -21.734375 L 1.328125 -25.328125 L 4.109375 -28.515625 L 9.25 -34.53125 L 12.375 -34.53125 L 12.375 -28.359375 L 19.78125 -28.359375 L 19.78125 -21.734375 L 12.375 -21.734375 L 12.375 -9.703125 C 12.375 -8.648438 12.613281 -7.832031 13.09375 -7.25 C 13.570312 -6.664062 14.273438 -6.375 15.203125 -6.375 C 16.335938 -6.375 17.640625 -6.664062 19.109375 -7.25 L 20.5 -0.96875 C 19.332031 -0.425781 18.140625 -0.03125 16.921875 0.21875 C 15.710938 0.476562 14.554688 0.609375 13.453125 0.609375 Z M 13.453125 0.609375 "/></g></g></g><g fill="#ffffff" fill-opacity="1"><g transform="translate(298.6231, 130.874991)"><g><path d="M 15.3125 0.609375 C 12.632812 0.609375 10.269531 -0.00390625 8.21875 -1.234375 C 6.164062 -2.460938 4.554688 -4.191406 3.390625 -6.421875 C 2.222656 -8.648438 1.640625 -11.253906 1.640625 -14.234375 C 1.640625 -17.140625 2.210938 -19.695312 3.359375 -21.90625 C 4.515625 -24.113281 6.125 -25.84375 8.1875 -27.09375 C 10.257812 -28.34375 12.648438 -28.96875 15.359375 -28.96875 C 18.035156 -28.96875 20.398438 -28.359375 22.453125 -27.140625 C 24.503906 -25.929688 26.113281 -24.226562 27.28125 -22.03125 C 28.445312 -19.84375 29.03125 -17.257812 29.03125 -14.28125 C 29.03125 -11.375 28.453125 -8.796875 27.296875 -6.546875 C 26.148438 -4.304688 24.550781 -2.550781 22.5 -1.28125 C 20.445312 -0.0195312 18.050781 0.609375 15.3125 0.609375 Z M 15.359375 -6.375 C 17.035156 -6.375 18.390625 -7.054688 19.421875 -8.421875 C 20.453125 -9.796875 20.96875 -11.734375 20.96875 -14.234375 C 20.96875 -16.660156 20.453125 -18.554688 19.421875 -19.921875 C 18.390625 -21.296875 17.019531 -21.984375 15.3125 -21.984375 C 13.664062 -21.984375 12.3125 -21.316406 11.25 -19.984375 C 10.1875 -18.648438 9.65625 -16.75 9.65625 -14.28125 C 9.65625 -11.851562 10.1875 -9.925781 11.25 -8.5 C 12.3125 -7.082031 13.679688 -6.375 15.359375 -6.375 Z M 15.359375 -6.375 "/></g></g></g><g fill="#ffffff" fill-opacity="1"><g transform="translate(329.293996, 130.874991)"><g><path d="M 10.84375 0 L 2.921875 0 L 2.921875 -37.921875 L 10.84375 -37.921875 Z M 10.84375 0 "/></g></g></g><g fill="#ffffff" fill-opacity="1"><g transform="translate(343.011135, 130.874991)"><g><path d="M 10.84375 0 L 2.921875 0 L 2.921875 -37.921875 L 10.84375 -37.921875 Z M 10.84375 0 "/></g></g></g><g fill="#ffffff" fill-opacity="1"><g transform="translate(22.945315, 202.874987)"><g><path d="M 13.921875 0.71875 C 9.234375 0.71875 5.109375 -0.171875 1.546875 -1.953125 L 2.3125 -9.140625 C 3.375 -8.597656 4.554688 -8.128906 5.859375 -7.734375 C 7.160156 -7.335938 8.46875 -7.035156 9.78125 -6.828125 C 11.101562 -6.628906 12.296875 -6.53125 13.359375 -6.53125 C 14.929688 -6.53125 16.25 -6.769531 17.3125 -7.25 C 18.375 -7.726562 18.90625 -8.648438 18.90625 -10.015625 C 18.90625 -11.316406 18.378906 -12.316406 17.328125 -13.015625 C 16.285156 -13.722656 14.804688 -14.421875 12.890625 -15.109375 C 9.503906 -16.097656 6.828125 -17.40625 4.859375 -19.03125 C 2.890625 -20.65625 1.90625 -22.941406 1.90625 -25.890625 C 1.90625 -28.222656 2.492188 -30.1875 3.671875 -31.78125 C 4.859375 -33.375 6.453125 -34.570312 8.453125 -35.375 C 10.453125 -36.175781 12.648438 -36.578125 15.046875 -36.578125 C 16.867188 -36.578125 18.710938 -36.394531 20.578125 -36.03125 C 22.441406 -35.675781 24.210938 -35.125 25.890625 -34.375 L 24.859375 -27.125 C 21.398438 -28.632812 18.300781 -29.390625 15.5625 -29.390625 C 14.125 -29.390625 12.941406 -29.15625 12.015625 -28.6875 C 11.097656 -28.226562 10.640625 -27.347656 10.640625 -26.046875 C 10.640625 -24.953125 11.09375 -24.0625 12 -23.375 C 12.90625 -22.6875 14.351562 -22.003906 16.34375 -21.328125 C 19.800781 -20.296875 22.546875 -18.929688 24.578125 -17.234375 C 26.617188 -15.535156 27.640625 -13.164062 27.640625 -10.125 C 27.640625 -7.789062 27.03125 -5.816406 25.8125 -4.203125 C 24.59375 -2.597656 22.945312 -1.375 20.875 -0.53125 C 18.8125 0.300781 16.492188 0.71875 13.921875 0.71875 Z M 13.921875 0.71875 "/></g></g></g><g fill="#ffffff" fill-opacity="1"><g transform="translate(51.818082, 202.874987)"><g><path d="M 19.734375 -10.78125 L 19.734375 -28.359375 L 27.640625 -28.359375 L 27.640625 0 L 19.734375 0 L 19.734375 -3.59375 C 18.910156 -2.332031 17.835938 -1.316406 16.515625 -0.546875 C 15.203125 0.222656 13.65625 0.609375 11.875 0.609375 C 8.988281 0.609375 6.710938 -0.3125 5.046875 -2.15625 C 3.390625 -4.007812 2.5625 -6.695312 2.5625 -10.21875 L 2.5625 -28.359375 L 10.53125 -28.359375 L 10.53125 -11.359375 C 10.53125 -8.140625 11.867188 -6.53125 14.546875 -6.53125 C 15.703125 -6.53125 16.742188 -6.921875 17.671875 -7.703125 C 18.597656 -8.492188 19.285156 -9.519531 19.734375 -10.78125 Z M 19.734375 -10.78125 "/></g></g></g><g fill="#ffffff" fill-opacity="1"><g transform="translate(82.33485, 202.874987)"><g><path d="M 11.40625 0.5625 C 9.414062 0.5625 7.585938 0.390625 5.921875 0.046875 C 4.265625 -0.296875 2.664062 -0.789062 1.125 -1.4375 L 2.265625 -8.171875 C 3.703125 -7.453125 5.222656 -6.898438 6.828125 -6.515625 C 8.441406 -6.140625 9.984375 -5.953125 11.453125 -5.953125 C 12.453125 -5.953125 13.300781 -6.113281 14 -6.4375 C 14.695312 -6.769531 15.03125 -7.363281 15 -8.21875 C 15 -8.96875 14.640625 -9.582031 13.921875 -10.0625 C 13.203125 -10.539062 11.953125 -11.054688 10.171875 -11.609375 C 7.085938 -12.398438 4.859375 -13.445312 3.484375 -14.75 C 2.117188 -16.050781 1.4375 -17.847656 1.4375 -20.140625 C 1.46875 -22.128906 1.976562 -23.769531 2.96875 -25.0625 C 3.96875 -26.363281 5.289062 -27.335938 6.9375 -27.984375 C 8.582031 -28.640625 10.394531 -28.96875 12.375 -28.96875 C 13.988281 -28.96875 15.554688 -28.796875 17.078125 -28.453125 C 18.609375 -28.117188 20.039062 -27.710938 21.375 -27.234375 L 20.34375 -20.59375 C 19.175781 -21.175781 17.875 -21.628906 16.4375 -21.953125 C 15 -22.285156 13.613281 -22.453125 12.28125 -22.453125 C 10.1875 -22.453125 9.140625 -21.785156 9.140625 -20.453125 C 9.140625 -19.765625 9.460938 -19.171875 10.109375 -18.671875 C 10.765625 -18.179688 11.929688 -17.691406 13.609375 -17.203125 C 16.867188 -16.242188 19.207031 -15.070312 20.625 -13.6875 C 22.050781 -12.300781 22.765625 -10.492188 22.765625 -8.265625 C 22.765625 -6.316406 22.265625 -4.691406 21.265625 -3.390625 C 20.273438 -2.085938 18.921875 -1.101562 17.203125 -0.4375 C 15.492188 0.226562 13.5625 0.5625 11.40625 0.5625 Z M 11.40625 0.5625 "/></g></g></g><g fill="#ffffff" fill-opacity="1"><g transform="translate(106.275614, 202.874987)"><g><path d="M 13.453125 0.609375 C 10.578125 0.609375 8.367188 -0.164062 6.828125 -1.71875 C 5.285156 -3.28125 4.515625 -5.617188 4.515625 -8.734375 L 4.515625 -21.734375 L 1.328125 -21.734375 L 1.328125 -25.328125 L 4.109375 -28.515625 L 9.25 -34.53125 L 12.375 -34.53125 L 12.375 -28.359375 L 19.78125 -28.359375 L 19.78125 -21.734375 L 12.375 -21.734375 L 12.375 -9.703125 C 12.375 -8.648438 12.613281 -7.832031 13.09375 -7.25 C 13.570312 -6.664062 14.273438 -6.375 15.203125 -6.375 C 16.335938 -6.375 17.640625 -6.664062 19.109375 -7.25 L 20.5 -0.96875 C 19.332031 -0.425781 18.140625 -0.03125 16.921875 0.21875 C 15.710938 0.476562 14.554688 0.609375 13.453125 0.609375 Z M 13.453125 0.609375 "/></g></g></g><g fill="#ffffff" fill-opacity="1"><g transform="translate(128.110001, 202.874987)"><g><path d="M 13 -28.96875 C 17.34375 -28.96875 20.484375 -27.914062 22.421875 -25.8125 C 24.359375 -23.707031 25.328125 -20.820312 25.328125 -17.15625 L 25.328125 0 L 17.46875 0 L 17.46875 -3.5 C 16.75 -2.226562 15.726562 -1.222656 14.40625 -0.484375 C 13.09375 0.242188 11.523438 0.609375 9.703125 0.609375 C 8.097656 0.609375 6.648438 0.242188 5.359375 -0.484375 C 4.078125 -1.222656 3.0625 -2.269531 2.3125 -3.625 C 1.5625 -4.976562 1.1875 -6.578125 1.1875 -8.421875 C 1.1875 -11.054688 1.976562 -13.132812 3.5625 -14.65625 C 5.15625 -16.1875 7.664062 -16.953125 11.09375 -16.953125 C 12.125 -16.953125 13.21875 -16.914062 14.375 -16.84375 C 15.539062 -16.78125 16.570312 -16.710938 17.46875 -16.640625 L 17.46875 -17.265625 C 17.46875 -18.867188 17.015625 -20.113281 16.109375 -21 C 15.203125 -21.894531 13.835938 -22.34375 12.015625 -22.34375 C 10.753906 -22.34375 9.476562 -22.207031 8.1875 -21.9375 C 6.90625 -21.664062 5.734375 -21.304688 4.671875 -20.859375 L 3.90625 -27.4375 C 5.207031 -27.914062 6.628906 -28.289062 8.171875 -28.5625 C 9.710938 -28.832031 11.320312 -28.96875 13 -28.96875 Z M 12.4375 -5.859375 C 15.789062 -5.859375 17.46875 -7.894531 17.46875 -11.96875 L 17.46875 -12.078125 C 16.8125 -12.140625 16.140625 -12.195312 15.453125 -12.25 C 14.773438 -12.300781 14.007812 -12.328125 13.15625 -12.328125 C 11.570312 -12.328125 10.4375 -12.078125 9.75 -11.578125 C 9.070312 -11.085938 8.734375 -10.273438 8.734375 -9.140625 C 8.734375 -8.210938 9.066406 -7.429688 9.734375 -6.796875 C 10.398438 -6.171875 11.300781 -5.859375 12.4375 -5.859375 Z M 12.4375 -5.859375 "/></g></g></g><g fill="#ffffff" fill-opacity="1"><g transform="translate(156.058017, 202.874987)"><g><path d="M 10.9375 -31.546875 L 2.71875 -31.546875 L 2.71875 -38.125 L 10.9375 -38.125 Z M 10.84375 0 L 2.875 0 L 2.875 -28.359375 L 10.84375 -28.359375 Z M 10.84375 0 "/></g></g></g><g fill="#ffffff" fill-opacity="1"><g transform="translate(169.723772, 202.874987)"><g><path d="M 18.65625 -28.96875 C 21.5625 -28.96875 23.835938 -28.039062 25.484375 -26.1875 C 27.128906 -24.34375 27.953125 -21.660156 27.953125 -18.140625 L 27.953125 0 L 20.03125 0 L 20.03125 -17 C 20.03125 -20.1875 18.679688 -21.78125 15.984375 -21.78125 C 14.816406 -21.78125 13.78125 -21.394531 12.875 -20.625 C 11.96875 -19.851562 11.269531 -18.816406 10.78125 -17.515625 L 10.78125 0 L 2.875 0 L 2.875 -28.359375 L 10.78125 -28.359375 L 10.78125 -24.765625 C 11.601562 -25.992188 12.675781 -27 14 -27.78125 C 15.320312 -28.570312 16.875 -28.96875 18.65625 -28.96875 Z M 18.65625 -28.96875 "/></g></g></g><g fill="#ffffff" fill-opacity="1"><g transform="translate(200.240539, 202.874987)"><g><path d="M 13 -28.96875 C 17.34375 -28.96875 20.484375 -27.914062 22.421875 -25.8125 C 24.359375 -23.707031 25.328125 -20.820312 25.328125 -17.15625 L 25.328125 0 L 17.46875 0 L 17.46875 -3.5 C 16.75 -2.226562 15.726562 -1.222656 14.40625 -0.484375 C 13.09375 0.242188 11.523438 0.609375 9.703125 0.609375 C 8.097656 0.609375 6.648438 0.242188 5.359375 -0.484375 C 4.078125 -1.222656 3.0625 -2.269531 2.3125 -3.625 C 1.5625 -4.976562 1.1875 -6.578125 1.1875 -8.421875 C 1.1875 -11.054688 1.976562 -13.132812 3.5625 -14.65625 C 5.15625 -16.1875 7.664062 -16.953125 11.09375 -16.953125 C 12.125 -16.953125 13.21875 -16.914062 14.375 -16.84375 C 15.539062 -16.78125 16.570312 -16.710938 17.46875 -16.640625 L 17.46875 -17.265625 C 17.46875 -18.867188 17.015625 -20.113281 16.109375 -21 C 15.203125 -21.894531 13.835938 -22.34375 12.015625 -22.34375 C 10.753906 -22.34375 9.476562 -22.207031 8.1875 -21.9375 C 6.90625 -21.664062 5.734375 -21.304688 4.671875 -20.859375 L 3.90625 -27.4375 C 5.207031 -27.914062 6.628906 -28.289062 8.171875 -28.5625 C 9.710938 -28.832031 11.320312 -28.96875 13 -28.96875 Z M 12.4375 -5.859375 C 15.789062 -5.859375 17.46875 -7.894531 17.46875 -11.96875 L 17.46875 -12.078125 C 16.8125 -12.140625 16.140625 -12.195312 15.453125 -12.25 C 14.773438 -12.300781 14.007812 -12.328125 13.15625 -12.328125 C 11.570312 -12.328125 10.4375 -12.078125 9.75 -11.578125 C 9.070312 -11.085938 8.734375 -10.273438 8.734375 -9.140625 C 8.734375 -8.210938 9.066406 -7.429688 9.734375 -6.796875 C 10.398438 -6.171875 11.300781 -5.859375 12.4375 -5.859375 Z M 12.4375 -5.859375 "/></g></g></g><g fill="#ffffff" fill-opacity="1"><g transform="translate(228.188543, 202.874987)"><g><path d="M 18.65625 0.609375 C 17.175781 0.609375 15.757812 0.335938 14.40625 -0.203125 C 13.050781 -0.753906 11.863281 -1.628906 10.84375 -2.828125 L 10.84375 0 L 2.921875 0 L 2.921875 -37.921875 L 10.84375 -37.921875 L 10.84375 -25.53125 C 11.863281 -26.769531 13.035156 -27.648438 14.359375 -28.171875 C 15.679688 -28.703125 17.078125 -28.96875 18.546875 -28.96875 C 20.773438 -28.96875 22.742188 -28.382812 24.453125 -27.21875 C 26.160156 -26.0625 27.503906 -24.382812 28.484375 -22.1875 C 29.460938 -20 29.953125 -17.363281 29.953125 -14.28125 C 29.953125 -11.195312 29.460938 -8.539062 28.484375 -6.3125 C 27.503906 -4.09375 26.160156 -2.382812 24.453125 -1.1875 C 22.742188 0.0078125 20.8125 0.609375 18.65625 0.609375 Z M 16.546875 -6.3125 C 18.148438 -6.3125 19.445312 -6.976562 20.4375 -8.3125 C 21.4375 -9.65625 21.9375 -11.644531 21.9375 -14.28125 C 21.9375 -16.8125 21.4375 -18.726562 20.4375 -20.03125 C 19.445312 -21.332031 18.148438 -21.984375 16.546875 -21.984375 C 15.304688 -21.984375 14.257812 -21.625 13.40625 -20.90625 C 12.550781 -20.1875 11.910156 -19.226562 11.484375 -18.03125 C 11.054688 -16.832031 10.84375 -15.53125 10.84375 -14.125 C 10.84375 -12.757812 11.0625 -11.484375 11.5 -10.296875 C 11.945312 -9.117188 12.585938 -8.160156 13.421875 -7.421875 C 14.265625 -6.679688 15.304688 -6.3125 16.546875 -6.3125 Z M 16.546875 -6.3125 "/></g></g></g><g fill="#ffffff" fill-opacity="1"><g transform="translate(259.784191, 202.874987)"><g><path d="M 10.9375 -31.546875 L 2.71875 -31.546875 L 2.71875 -38.125 L 10.9375 -38.125 Z M 10.84375 0 L 2.875 0 L 2.875 -28.359375 L 10.84375 -28.359375 Z M 10.84375 0 "/></g></g></g><g fill="#ffffff" fill-opacity="1"><g transform="translate(273.449946, 202.874987)"><g><path d="M 10.84375 0 L 2.921875 0 L 2.921875 -37.921875 L 10.84375 -37.921875 Z M 10.84375 0 "/></g></g></g><g fill="#ffffff" fill-opacity="1"><g transform="translate(287.167085, 202.874987)"><g><path d="M 10.9375 -31.546875 L 2.71875 -31.546875 L 2.71875 -38.125 L 10.9375 -38.125 Z M 10.84375 0 L 2.875 0 L 2.875 -28.359375 L 10.84375 -28.359375 Z M 10.84375 0 "/></g></g></g><g fill="#ffffff" fill-opacity="1"><g transform="translate(300.83284, 202.874987)"><g><path d="M 13.453125 0.609375 C 10.578125 0.609375 8.367188 -0.164062 6.828125 -1.71875 C 5.285156 -3.28125 4.515625 -5.617188 4.515625 -8.734375 L 4.515625 -21.734375 L 1.328125 -21.734375 L 1.328125 -25.328125 L 4.109375 -28.515625 L 9.25 -34.53125 L 12.375 -34.53125 L 12.375 -28.359375 L 19.78125 -28.359375 L 19.78125 -21.734375 L 12.375 -21.734375 L 12.375 -9.703125 C 12.375 -8.648438 12.613281 -7.832031 13.09375 -7.25 C 13.570312 -6.664062 14.273438 -6.375 15.203125 -6.375 C 16.335938 -6.375 17.640625 -6.664062 19.109375 -7.25 L 20.5 -0.96875 C 19.332031 -0.425781 18.140625 -0.03125 16.921875 0.21875 C 15.710938 0.476562 14.554688 0.609375 13.453125 0.609375 Z M 13.453125 0.609375 "/></g></g></g><g fill="#ffffff" fill-opacity="1"><g transform="translate(322.667227, 202.874987)"><g><path d="M 14.6875 -8.890625 L 20.5 -28.359375 L 28.765625 -28.359375 L 18.796875 0 L 15.765625 8.78125 L 7.65625 8.78125 L 10.734375 0.25 L 0.671875 -28.359375 L 8.9375 -28.359375 L 14.640625 -8.890625 Z M 14.6875 -8.890625 "/></g></g></g><g fill="#ffffff" fill-opacity="1"><g transform="translate(111.128903, 274.874982)"><g><path d="M 34.78125 0 L 26.15625 0 L 24.046875 -6.53125 L 11.046875 -6.53125 L 8.9375 0 L 0.40625 0 L 13.15625 -35.96875 L 21.984375 -35.96875 Z M 17.5625 -26.40625 L 13.09375 -12.84375 L 21.984375 -12.84375 Z M 17.5625 -26.40625 "/></g></g></g><g fill="#ffffff" fill-opacity="1"><g transform="translate(146.320799, 274.874982)"><g><path d="M 11.40625 0.5625 C 9.414062 0.5625 7.585938 0.390625 5.921875 0.046875 C 4.265625 -0.296875 2.664062 -0.789062 1.125 -1.4375 L 2.265625 -8.171875 C 3.703125 -7.453125 5.222656 -6.898438 6.828125 -6.515625 C 8.441406 -6.140625 9.984375 -5.953125 11.453125 -5.953125 C 12.453125 -5.953125 13.300781 -6.113281 14 -6.4375 C 14.695312 -6.769531 15.03125 -7.363281 15 -8.21875 C 15 -8.96875 14.640625 -9.582031 13.921875 -10.0625 C 13.203125 -10.539062 11.953125 -11.054688 10.171875 -11.609375 C 7.085938 -12.398438 4.859375 -13.445312 3.484375 -14.75 C 2.117188 -16.050781 1.4375 -17.847656 1.4375 -20.140625 C 1.46875 -22.128906 1.976562 -23.769531 2.96875 -25.0625 C 3.96875 -26.363281 5.289062 -27.335938 6.9375 -27.984375 C 8.582031 -28.640625 10.394531 -28.96875 12.375 -28.96875 C 13.988281 -28.96875 15.554688 -28.796875 17.078125 -28.453125 C 18.609375 -28.117188 20.039062 -27.710938 21.375 -27.234375 L 20.34375 -20.59375 C 19.175781 -21.175781 17.875 -21.628906 16.4375 -21.953125 C 15 -22.285156 13.613281 -22.453125 12.28125 -22.453125 C 10.1875 -22.453125 9.140625 -21.785156 9.140625 -20.453125 C 9.140625 -19.765625 9.460938 -19.171875 10.109375 -18.671875 C 10.765625 -18.179688 11.929688 -17.691406 13.609375 -17.203125 C 16.867188 -16.242188 19.207031 -15.070312 20.625 -13.6875 C 22.050781 -12.300781 22.765625 -10.492188 22.765625 -8.265625 C 22.765625 -6.316406 22.265625 -4.691406 21.265625 -3.390625 C 20.273438 -2.085938 18.921875 -1.101562 17.203125 -0.4375 C 15.492188 0.226562 13.5625 0.5625 11.40625 0.5625 Z M 11.40625 0.5625 "/></g></g></g><g fill="#ffffff" fill-opacity="1"><g transform="translate(170.261564, 274.874982)"><g><path d="M 11.40625 0.5625 C 9.414062 0.5625 7.585938 0.390625 5.921875 0.046875 C 4.265625 -0.296875 2.664062 -0.789062 1.125 -1.4375 L 2.265625 -8.171875 C 3.703125 -7.453125 5.222656 -6.898438 6.828125 -6.515625 C 8.441406 -6.140625 9.984375 -5.953125 11.453125 -5.953125 C 12.453125 -5.953125 13.300781 -6.113281 14 -6.4375 C 14.695312 -6.769531 15.03125 -7.363281 15 -8.21875 C 15 -8.96875 14.640625 -9.582031 13.921875 -10.0625 C 13.203125 -10.539062 11.953125 -11.054688 10.171875 -11.609375 C 7.085938 -12.398438 4.859375 -13.445312 3.484375 -14.75 C 2.117188 -16.050781 1.4375 -17.847656 1.4375 -20.140625 C 1.46875 -22.128906 1.976562 -23.769531 2.96875 -25.0625 C 3.96875 -26.363281 5.289062 -27.335938 6.9375 -27.984375 C 8.582031 -28.640625 10.394531 -28.96875 12.375 -28.96875 C 13.988281 -28.96875 15.554688 -28.796875 17.078125 -28.453125 C 18.609375 -28.117188 20.039062 -27.710938 21.375 -27.234375 L 20.34375 -20.59375 C 19.175781 -21.175781 17.875 -21.628906 16.4375 -21.953125 C 15 -22.285156 13.613281 -22.453125 12.28125 -22.453125 C 10.1875 -22.453125 9.140625 -21.785156 9.140625 -20.453125 C 9.140625 -19.765625 9.460938 -19.171875 10.109375 -18.671875 C 10.765625 -18.179688 11.929688 -17.691406 13.609375 -17.203125 C 16.867188 -16.242188 19.207031 -15.070312 20.625 -13.6875 C 22.050781 -12.300781 22.765625 -10.492188 22.765625 -8.265625 C 22.765625 -6.316406 22.265625 -4.691406 21.265625 -3.390625 C 20.273438 -2.085938 18.921875 -1.101562 17.203125 -0.4375 C 15.492188 0.226562 13.5625 0.5625 11.40625 0.5625 Z M 11.40625 0.5625 "/></g></g></g><g fill="#ffffff" fill-opacity="1"><g transform="translate(194.202328, 274.874982)"><g><path d="M 15.3125 0.609375 C 12.632812 0.609375 10.269531 -0.00390625 8.21875 -1.234375 C 6.164062 -2.460938 4.554688 -4.191406 3.390625 -6.421875 C 2.222656 -8.648438 1.640625 -11.253906 1.640625 -14.234375 C 1.640625 -17.140625 2.210938 -19.695312 3.359375 -21.90625 C 4.515625 -24.113281 6.125 -25.84375 8.1875 -27.09375 C 10.257812 -28.34375 12.648438 -28.96875 15.359375 -28.96875 C 18.035156 -28.96875 20.398438 -28.359375 22.453125 -27.140625 C 24.503906 -25.929688 26.113281 -24.226562 27.28125 -22.03125 C 28.445312 -19.84375 29.03125 -17.257812 29.03125 -14.28125 C 29.03125 -11.375 28.453125 -8.796875 27.296875 -6.546875 C 26.148438 -4.304688 24.550781 -2.550781 22.5 -1.28125 C 20.445312 -0.0195312 18.050781 0.609375 15.3125 0.609375 Z M 15.359375 -6.375 C 17.035156 -6.375 18.390625 -7.054688 19.421875 -8.421875 C 20.453125 -9.796875 20.96875 -11.734375 20.96875 -14.234375 C 20.96875 -16.660156 20.453125 -18.554688 19.421875 -19.921875 C 18.390625 -21.296875 17.019531 -21.984375 15.3125 -21.984375 C 13.664062 -21.984375 12.3125 -21.316406 11.25 -19.984375 C 10.1875 -18.648438 9.65625 -16.75 9.65625 -14.28125 C 9.65625 -11.851562 10.1875 -9.925781 11.25 -8.5 C 12.3125 -7.082031 13.679688 -6.375 15.359375 -6.375 Z M 15.359375 -6.375 "/></g></g></g><g fill="#ffffff" fill-opacity="1"><g transform="translate(224.873224, 274.874982)"><g><path d="M 15.359375 0.5625 C 12.691406 0.5625 10.328125 -0.0234375 8.265625 -1.203125 C 6.210938 -2.390625 4.59375 -4.085938 3.40625 -6.296875 C 2.226562 -8.503906 1.640625 -11.128906 1.640625 -14.171875 C 1.640625 -17.222656 2.25 -19.851562 3.46875 -22.0625 C 4.6875 -24.269531 6.332031 -25.972656 8.40625 -27.171875 C 10.476562 -28.367188 12.796875 -28.96875 15.359375 -28.96875 C 16.898438 -28.96875 18.390625 -28.765625 19.828125 -28.359375 C 21.265625 -27.953125 22.671875 -27.285156 24.046875 -26.359375 L 21.421875 -20.140625 C 20.460938 -20.828125 19.5625 -21.316406 18.71875 -21.609375 C 17.882812 -21.898438 16.972656 -22.046875 15.984375 -22.046875 C 14.097656 -22.046875 12.570312 -21.375 11.40625 -20.03125 C 10.238281 -18.695312 9.65625 -16.765625 9.65625 -14.234375 C 9.65625 -11.660156 10.238281 -9.695312 11.40625 -8.34375 C 12.570312 -6.988281 14.097656 -6.3125 15.984375 -6.3125 C 17.796875 -6.3125 19.644531 -6.914062 21.53125 -8.125 L 24.046875 -2 C 22.566406 -1.039062 21.132812 -0.375 19.75 0 C 18.363281 0.375 16.898438 0.5625 15.359375 0.5625 Z M 15.359375 0.5625 "/></g></g></g><g fill="#ffffff" fill-opacity="1"><g transform="translate(249.738739, 274.874982)"><g><path d="M 2.71875 0 L 2.71875 -7.65625 L 11.40625 -7.65625 L 11.40625 0 Z M 2.71875 0 "/></g></g></g></svg>