<svg xmlns="http://www.w3.org/2000/svg" xmlns:xlink="http://www.w3.org/1999/xlink" width="500" zoomAndPan="magnify" viewBox="0 0 375 374.999991" height="500" preserveAspectRatio="xMidYMid meet" version="1.0"><defs><g/></defs><g fill="#ffffff" fill-opacity="1"><g transform="translate(2.519536, 137.249991)"><g><path d="M 14.84375 0.546875 C 12.269531 0.546875 10.050781 0.0546875 8.1875 -0.921875 C 6.332031 -1.910156 4.894531 -3.316406 3.875 -5.140625 C 2.863281 -6.972656 2.359375 -9.144531 2.359375 -11.65625 L 2.359375 -31.765625 L 9.671875 -31.765625 L 9.671875 -11.703125 C 9.671875 -9.765625 10.125 -8.273438 11.03125 -7.234375 C 11.9375 -6.191406 13.207031 -5.671875 14.84375 -5.671875 C 16.5 -5.671875 17.785156 -6.191406 18.703125 -7.234375 C 19.628906 -8.273438 20.09375 -9.765625 20.09375 -11.703125 L 20.09375 -31.765625 L 27.359375 -31.765625 L 27.359375 -11.65625 C 27.359375 -7.90625 26.242188 -4.929688 24.015625 -2.734375 C 21.796875 -0.546875 18.738281 0.546875 14.84375 0.546875 Z M 14.84375 0.546875 "/></g></g></g><g fill="#ffffff" fill-opacity="1"><g transform="translate(32.240114, 137.249991)"><g><path d="M 12.296875 0.640625 C 8.148438 0.640625 4.503906 -0.144531 1.359375 -1.71875 L 2.046875 -8.078125 C 2.984375 -7.585938 4.023438 -7.171875 5.171875 -6.828125 C 6.316406 -6.484375 7.472656 -6.21875 8.640625 -6.03125 C 9.804688 -5.851562 10.859375 -5.765625 11.796875 -5.765625 C 13.191406 -5.765625 14.359375 -5.972656 15.296875 -6.390625 C 16.234375 -6.816406 16.703125 -7.632812 16.703125 -8.84375 C 16.703125 -10 16.238281 -10.882812 15.3125 -11.5 C 14.394531 -12.125 13.085938 -12.738281 11.390625 -13.34375 C 8.390625 -14.21875 6.019531 -15.375 4.28125 -16.8125 C 2.539062 -18.25 1.671875 -20.269531 1.671875 -22.875 C 1.671875 -24.925781 2.191406 -26.65625 3.234375 -28.0625 C 4.285156 -29.46875 5.695312 -30.523438 7.46875 -31.234375 C 9.238281 -31.953125 11.179688 -32.3125 13.296875 -32.3125 C 14.898438 -32.3125 16.523438 -32.148438 18.171875 -31.828125 C 19.816406 -31.515625 21.382812 -31.023438 22.875 -30.359375 L 21.96875 -23.953125 C 18.90625 -25.285156 16.164062 -25.953125 13.75 -25.953125 C 12.476562 -25.953125 11.429688 -25.75 10.609375 -25.34375 C 9.796875 -24.9375 9.390625 -24.15625 9.390625 -23 C 9.390625 -22.03125 9.789062 -21.242188 10.59375 -20.640625 C 11.394531 -20.035156 12.671875 -19.429688 14.421875 -18.828125 C 17.484375 -17.921875 19.910156 -16.71875 21.703125 -15.21875 C 23.503906 -13.726562 24.40625 -11.632812 24.40625 -8.9375 C 24.40625 -6.882812 23.867188 -5.144531 22.796875 -3.71875 C 21.722656 -2.300781 20.269531 -1.21875 18.4375 -0.46875 C 16.613281 0.269531 14.566406 0.640625 12.296875 0.640625 Z M 12.296875 0.640625 "/></g></g></g><g fill="#ffffff" fill-opacity="1"><g transform="translate(57.740822, 137.249991)"><g><path d="M 24.453125 -31.765625 L 24.453125 -25.546875 L 10.25 -25.546875 L 10.25 -17.0625 L 22.78125 -17.0625 L 22.78125 -11.078125 L 10.25 -11.078125 L 10.25 0 L 3 0 L 3 -31.765625 Z M 24.453125 -31.765625 "/></g></g></g><g fill="#ffffff" fill-opacity="1"><g transform="translate(83.150779, 137.249991)"><g/></g></g><g fill="#ffffff" fill-opacity="1"><g transform="translate(95.674253, 137.249991)"><g><path d="M 14.25 -31.765625 C 18.125 -31.765625 21.175781 -30.765625 23.40625 -28.765625 C 25.644531 -26.765625 26.765625 -23.96875 26.765625 -20.375 C 26.765625 -16.832031 25.648438 -14.023438 23.421875 -11.953125 C 21.203125 -9.878906 18.128906 -8.84375 14.203125 -8.84375 L 10.25 -8.84375 L 10.25 0 L 3 0 L 3 -31.765625 Z M 10.25 -15.0625 L 14.015625 -15.0625 C 15.710938 -15.0625 17.046875 -15.5 18.015625 -16.375 C 18.984375 -17.257812 19.46875 -18.59375 19.46875 -20.375 C 19.46875 -22.070312 18.988281 -23.363281 18.03125 -24.25 C 17.082031 -25.144531 15.757812 -25.59375 14.0625 -25.59375 L 10.25 -25.59375 Z M 10.25 -15.0625 "/></g></g></g><g fill="#ffffff" fill-opacity="1"><g transform="translate(123.534458, 137.249991)"><g><path d="M 11.484375 -25.59375 C 15.328125 -25.59375 18.101562 -24.660156 19.8125 -22.796875 C 21.519531 -20.941406 22.375 -18.394531 22.375 -15.15625 L 22.375 0 L 15.421875 0 L 15.421875 -3.078125 C 14.785156 -1.960938 13.882812 -1.078125 12.71875 -0.421875 C 11.5625 0.222656 10.179688 0.546875 8.578125 0.546875 C 7.148438 0.546875 5.867188 0.222656 4.734375 -0.421875 C 3.609375 -1.078125 2.710938 -2 2.046875 -3.1875 C 1.378906 -4.382812 1.046875 -5.800781 1.046875 -7.4375 C 1.046875 -9.769531 1.75 -11.609375 3.15625 -12.953125 C 4.5625 -14.296875 6.773438 -14.96875 9.796875 -14.96875 C 10.703125 -14.96875 11.671875 -14.9375 12.703125 -14.875 C 13.734375 -14.820312 14.640625 -14.765625 15.421875 -14.703125 L 15.421875 -15.25 C 15.421875 -16.664062 15.019531 -17.765625 14.21875 -18.546875 C 13.414062 -19.335938 12.21875 -19.734375 10.625 -19.734375 C 9.5 -19.734375 8.367188 -19.613281 7.234375 -19.375 C 6.097656 -19.132812 5.0625 -18.816406 4.125 -18.421875 L 3.453125 -24.234375 C 4.597656 -24.648438 5.847656 -24.976562 7.203125 -25.21875 C 8.566406 -25.46875 9.992188 -25.59375 11.484375 -25.59375 Z M 10.984375 -5.171875 C 13.941406 -5.171875 15.421875 -6.972656 15.421875 -10.578125 L 15.421875 -10.65625 C 14.847656 -10.71875 14.257812 -10.769531 13.65625 -10.8125 C 13.050781 -10.863281 12.367188 -10.890625 11.609375 -10.890625 C 10.222656 -10.890625 9.226562 -10.671875 8.625 -10.234375 C 8.019531 -9.796875 7.71875 -9.078125 7.71875 -8.078125 C 7.71875 -7.265625 8.007812 -6.578125 8.59375 -6.015625 C 9.1875 -5.453125 9.984375 -5.171875 10.984375 -5.171875 Z M 10.984375 -5.171875 "/></g></g></g><g fill="#ffffff" fill-opacity="1"><g transform="translate(148.218424, 137.249991)"><g><path d="M 11.890625 0.546875 C 9.347656 0.546875 7.394531 -0.140625 6.03125 -1.515625 C 4.675781 -2.890625 4 -4.957031 4 -7.71875 L 4 -19.1875 L 1.1875 -19.1875 L 1.1875 -22.375 L 3.625 -25.1875 L 8.171875 -30.484375 L 10.9375 -30.484375 L 10.9375 -25.046875 L 17.46875 -25.046875 L 17.46875 -19.1875 L 10.9375 -19.1875 L 10.9375 -8.578125 C 10.9375 -7.640625 11.144531 -6.910156 11.5625 -6.390625 C 11.988281 -5.878906 12.613281 -5.625 13.4375 -5.625 C 14.425781 -5.625 15.570312 -5.878906 16.875 -6.390625 L 18.109375 -0.859375 C 17.078125 -0.378906 16.023438 -0.0234375 14.953125 0.203125 C 13.878906 0.429688 12.859375 0.546875 11.890625 0.546875 Z M 11.890625 0.546875 "/></g></g></g><g fill="#ffffff" fill-opacity="1"><g transform="translate(167.50277, 137.249991)"><g><path d="M 23.234375 -10.390625 L 8.484375 -10.390625 C 8.785156 -8.640625 9.425781 -7.351562 10.40625 -6.53125 C 11.394531 -5.71875 12.644531 -5.3125 14.15625 -5.3125 C 15.125 -5.3125 16.148438 -5.445312 17.234375 -5.71875 C 18.328125 -5.988281 19.3125 -6.410156 20.1875 -6.984375 L 21.640625 -1.640625 C 20.460938 -0.878906 19.191406 -0.332031 17.828125 0 C 16.472656 0.332031 15.035156 0.5 13.515625 0.5 C 11.160156 0.5 9.070312 -0.0351562 7.25 -1.109375 C 5.4375 -2.179688 4.015625 -3.691406 2.984375 -5.640625 C 1.960938 -7.597656 1.453125 -9.90625 1.453125 -12.5625 C 1.453125 -15.101562 1.925781 -17.347656 2.875 -19.296875 C 3.832031 -21.253906 5.203125 -22.785156 6.984375 -23.890625 C 8.773438 -24.992188 10.878906 -25.546875 13.296875 -25.546875 C 15.410156 -25.546875 17.269531 -25.078125 18.875 -24.140625 C 20.476562 -23.203125 21.722656 -21.921875 22.609375 -20.296875 C 23.503906 -18.679688 23.953125 -16.816406 23.953125 -14.703125 C 23.953125 -13.910156 23.882812 -13.144531 23.75 -12.40625 C 23.613281 -11.664062 23.441406 -10.992188 23.234375 -10.390625 Z M 13.0625 -19.78125 C 10.46875 -19.78125 8.941406 -18.085938 8.484375 -14.703125 L 17.15625 -14.75 C 17.125 -16.4375 16.742188 -17.695312 16.015625 -18.53125 C 15.285156 -19.363281 14.300781 -19.78125 13.0625 -19.78125 Z M 13.0625 -19.78125 "/></g></g></g><g fill="#ffffff" fill-opacity="1"><g transform="translate(192.912726, 137.249991)"><g><path d="M 9.578125 0 L 2.59375 0 L 2.59375 -33.484375 L 9.578125 -33.484375 Z M 9.578125 0 "/></g></g></g><g fill="#ffffff" fill-opacity="1"><g transform="translate(205.02783, 137.249991)"><g/></g></g><g fill="#ffffff" fill-opacity="1"><g transform="translate(217.551305, 137.249991)"><g><path d="M 16.96875 0.59375 C 14.125 0.59375 11.566406 -0.0546875 9.296875 -1.359375 C 7.035156 -2.660156 5.242188 -4.535156 3.921875 -6.984375 C 2.609375 -9.429688 1.953125 -12.394531 1.953125 -15.875 C 1.953125 -19.320312 2.578125 -22.269531 3.828125 -24.71875 C 5.085938 -27.175781 6.828125 -29.054688 9.046875 -30.359375 C 11.273438 -31.660156 13.84375 -32.3125 16.75 -32.3125 C 18.320312 -32.3125 19.90625 -32.066406 21.5 -31.578125 C 23.101562 -31.097656 24.707031 -30.359375 26.3125 -29.359375 L 23.875 -23.5 C 22.75 -24.257812 21.625 -24.828125 20.5 -25.203125 C 19.382812 -25.578125 18.253906 -25.765625 17.109375 -25.765625 C 14.898438 -25.765625 13.082031 -24.957031 11.65625 -23.34375 C 10.238281 -21.726562 9.53125 -19.253906 9.53125 -15.921875 C 9.53125 -12.660156 10.238281 -10.195312 11.65625 -8.53125 C 13.082031 -6.863281 14.914062 -6.03125 17.15625 -6.03125 C 19.539062 -6.03125 21.820312 -6.785156 24 -8.296875 L 26.5 -2.359375 C 23.65625 -0.390625 20.476562 0.59375 16.96875 0.59375 Z M 16.96875 0.59375 "/></g></g></g><g fill="#ffffff" fill-opacity="1"><g transform="translate(245.093891, 137.249991)"><g><path d="M 13.515625 0.546875 C 11.160156 0.546875 9.070312 0.00390625 7.25 -1.078125 C 5.4375 -2.171875 4.015625 -3.703125 2.984375 -5.671875 C 1.960938 -7.640625 1.453125 -9.9375 1.453125 -12.5625 C 1.453125 -15.132812 1.957031 -17.394531 2.96875 -19.34375 C 3.976562 -21.300781 5.398438 -22.832031 7.234375 -23.9375 C 9.066406 -25.039062 11.175781 -25.59375 13.5625 -25.59375 C 15.925781 -25.59375 18.015625 -25.054688 19.828125 -23.984375 C 21.640625 -22.910156 23.0625 -21.40625 24.09375 -19.46875 C 25.125 -17.53125 25.640625 -15.242188 25.640625 -12.609375 C 25.640625 -10.035156 25.128906 -7.757812 24.109375 -5.78125 C 23.097656 -3.800781 21.6875 -2.25 19.875 -1.125 C 18.0625 -0.0078125 15.941406 0.546875 13.515625 0.546875 Z M 13.5625 -5.625 C 15.050781 -5.625 16.25 -6.226562 17.15625 -7.4375 C 18.0625 -8.644531 18.515625 -10.351562 18.515625 -12.5625 C 18.515625 -14.71875 18.0625 -16.398438 17.15625 -17.609375 C 16.25 -18.816406 15.035156 -19.421875 13.515625 -19.421875 C 12.066406 -19.421875 10.875 -18.828125 9.9375 -17.640625 C 9 -16.460938 8.53125 -14.785156 8.53125 -12.609375 C 8.53125 -10.460938 9 -8.757812 9.9375 -7.5 C 10.875 -6.25 12.082031 -5.625 13.5625 -5.625 Z M 13.5625 -5.625 "/></g></g></g><g fill="#ffffff" fill-opacity="1"><g transform="translate(272.182718, 137.249991)"><g><path d="M 9.578125 0 L 2.59375 0 L 2.59375 -33.484375 L 9.578125 -33.484375 Z M 9.578125 0 "/></g></g></g><g fill="#ffffff" fill-opacity="1"><g transform="translate(284.297822, 137.249991)"><g><path d="M 9.578125 0 L 2.59375 0 L 2.59375 -33.484375 L 9.578125 -33.484375 Z M 9.578125 0 "/></g></g></g><g fill="#ffffff" fill-opacity="1"><g transform="translate(296.412926, 137.249991)"><g><path d="M 23.234375 -10.390625 L 8.484375 -10.390625 C 8.785156 -8.640625 9.425781 -7.351562 10.40625 -6.53125 C 11.394531 -5.71875 12.644531 -5.3125 14.15625 -5.3125 C 15.125 -5.3125 16.148438 -5.445312 17.234375 -5.71875 C 18.328125 -5.988281 19.3125 -6.410156 20.1875 -6.984375 L 21.640625 -1.640625 C 20.460938 -0.878906 19.191406 -0.332031 17.828125 0 C 16.472656 0.332031 15.035156 0.5 13.515625 0.5 C 11.160156 0.5 9.070312 -0.0351562 7.25 -1.109375 C 5.4375 -2.179688 4.015625 -3.691406 2.984375 -5.640625 C 1.960938 -7.597656 1.453125 -9.90625 1.453125 -12.5625 C 1.453125 -15.101562 1.925781 -17.347656 2.875 -19.296875 C 3.832031 -21.253906 5.203125 -22.785156 6.984375 -23.890625 C 8.773438 -24.992188 10.878906 -25.546875 13.296875 -25.546875 C 15.410156 -25.546875 17.269531 -25.078125 18.875 -24.140625 C 20.476562 -23.203125 21.722656 -21.921875 22.609375 -20.296875 C 23.503906 -18.679688 23.953125 -16.816406 23.953125 -14.703125 C 23.953125 -13.910156 23.882812 -13.144531 23.75 -12.40625 C 23.613281 -11.664062 23.441406 -10.992188 23.234375 -10.390625 Z M 13.0625 -19.78125 C 10.46875 -19.78125 8.941406 -18.085938 8.484375 -14.703125 L 17.15625 -14.75 C 17.125 -16.4375 16.742188 -17.695312 16.015625 -18.53125 C 15.285156 -19.363281 14.300781 -19.78125 13.0625 -19.78125 Z M 13.0625 -19.78125 "/></g></g></g><g fill="#ffffff" fill-opacity="1"><g transform="translate(321.822882, 137.249991)"><g><path d="M 10.53125 -6.625 L 14.65625 -6.625 C 18.039062 -6.65625 20.519531 -6.066406 22.09375 -4.859375 C 23.664062 -3.648438 24.453125 -1.96875 24.453125 0.1875 C 24.453125 2.601562 23.398438 4.554688 21.296875 6.046875 C 19.203125 7.546875 16.082031 8.296875 11.9375 8.296875 C 8.632812 8.296875 6.113281 7.75 4.375 6.65625 C 2.632812 5.570312 1.765625 3.972656 1.765625 1.859375 C 1.765625 0.921875 2.035156 0.0820312 2.578125 -0.65625 C 3.128906 -1.394531 3.765625 -2.007812 4.484375 -2.5 C 3.035156 -3.375 2.3125 -4.6875 2.3125 -6.4375 C 2.3125 -7.40625 2.566406 -8.265625 3.078125 -9.015625 C 3.597656 -9.773438 4.222656 -10.398438 4.953125 -10.890625 C 3.191406 -12.398438 2.3125 -14.488281 2.3125 -17.15625 C 2.3125 -19.75 3.210938 -21.800781 5.015625 -23.3125 C 6.816406 -24.832031 9.304688 -25.59375 12.484375 -25.59375 C 14.328125 -25.59375 15.867188 -25.304688 17.109375 -24.734375 L 22.78125 -26.6875 L 24.1875 -21.96875 L 21.1875 -21.328125 C 21.644531 -20.835938 22.023438 -20.226562 22.328125 -19.5 C 22.628906 -18.78125 22.78125 -18 22.78125 -17.15625 C 22.78125 -14.550781 21.882812 -12.46875 20.09375 -10.90625 C 18.3125 -9.351562 15.800781 -8.578125 12.5625 -8.578125 C 11.957031 -8.578125 11.375 -8.597656 10.8125 -8.640625 C 10.257812 -8.691406 9.726562 -8.773438 9.21875 -8.890625 C 8.851562 -8.585938 8.671875 -8.195312 8.671875 -7.71875 C 8.671875 -7.289062 8.84375 -7 9.1875 -6.84375 C 9.53125 -6.695312 9.976562 -6.625 10.53125 -6.625 Z M 12.53125 -20.421875 C 10.257812 -20.421875 9.125 -19.347656 9.125 -17.203125 C 9.125 -16.140625 9.410156 -15.296875 9.984375 -14.671875 C 10.554688 -14.054688 11.40625 -13.75 12.53125 -13.75 C 13.644531 -13.75 14.488281 -14.050781 15.0625 -14.65625 C 15.632812 -15.257812 15.921875 -16.109375 15.921875 -17.203125 C 15.921875 -18.222656 15.640625 -19.015625 15.078125 -19.578125 C 14.523438 -20.140625 13.675781 -20.421875 12.53125 -20.421875 Z M 12.4375 2.859375 C 14.125 2.859375 15.390625 2.660156 16.234375 2.265625 C 17.085938 1.867188 17.515625 1.234375 17.515625 0.359375 C 17.515625 -0.390625 17.164062 -0.898438 16.46875 -1.171875 C 15.769531 -1.453125 14.742188 -1.59375 13.390625 -1.59375 L 9.34375 -1.59375 C 8.644531 -0.832031 8.296875 -0.101562 8.296875 0.59375 C 8.296875 1.53125 8.679688 2.140625 9.453125 2.421875 C 10.234375 2.710938 11.226562 2.859375 12.4375 2.859375 Z M 12.4375 2.859375 "/></g></g></g><g fill="#ffffff" fill-opacity="1"><g transform="translate(347.051358, 137.249991)"><g><path d="M 23.234375 -10.390625 L 8.484375 -10.390625 C 8.785156 -8.640625 9.425781 -7.351562 10.40625 -6.53125 C 11.394531 -5.71875 12.644531 -5.3125 14.15625 -5.3125 C 15.125 -5.3125 16.148438 -5.445312 17.234375 -5.71875 C 18.328125 -5.988281 19.3125 -6.410156 20.1875 -6.984375 L 21.640625 -1.640625 C 20.460938 -0.878906 19.191406 -0.332031 17.828125 0 C 16.472656 0.332031 15.035156 0.5 13.515625 0.5 C 11.160156 0.5 9.070312 -0.0351562 7.25 -1.109375 C 5.4375 -2.179688 4.015625 -3.691406 2.984375 -5.640625 C 1.960938 -7.597656 1.453125 -9.90625 1.453125 -12.5625 C 1.453125 -15.101562 1.925781 -17.347656 2.875 -19.296875 C 3.832031 -21.253906 5.203125 -22.785156 6.984375 -23.890625 C 8.773438 -24.992188 10.878906 -25.546875 13.296875 -25.546875 C 15.410156 -25.546875 17.269531 -25.078125 18.875 -24.140625 C 20.476562 -23.203125 21.722656 -21.921875 22.609375 -20.296875 C 23.503906 -18.679688 23.953125 -16.816406 23.953125 -14.703125 C 23.953125 -13.910156 23.882812 -13.144531 23.75 -12.40625 C 23.613281 -11.664062 23.441406 -10.992188 23.234375 -10.390625 Z M 13.0625 -19.78125 C 10.46875 -19.78125 8.941406 -18.085938 8.484375 -14.703125 L 17.15625 -14.75 C 17.125 -16.4375 16.742188 -17.695312 16.015625 -18.53125 C 15.285156 -19.363281 14.300781 -19.78125 13.0625 -19.78125 Z M 13.0625 -19.78125 "/></g></g></g><g fill="#ffffff" fill-opacity="1"><g transform="translate(91.523436, 200.999987)"><g><path d="M 13.515625 0.546875 C 11.160156 0.546875 9.070312 0.00390625 7.25 -1.078125 C 5.4375 -2.171875 4.015625 -3.703125 2.984375 -5.671875 C 1.960938 -7.640625 1.453125 -9.9375 1.453125 -12.5625 C 1.453125 -15.132812 1.957031 -17.394531 2.96875 -19.34375 C 3.976562 -21.300781 5.398438 -22.832031 7.234375 -23.9375 C 9.066406 -25.039062 11.175781 -25.59375 13.5625 -25.59375 C 15.925781 -25.59375 18.015625 -25.054688 19.828125 -23.984375 C 21.640625 -22.910156 23.0625 -21.40625 24.09375 -19.46875 C 25.125 -17.53125 25.640625 -15.242188 25.640625 -12.609375 C 25.640625 -10.035156 25.128906 -7.757812 24.109375 -5.78125 C 23.097656 -3.800781 21.6875 -2.25 19.875 -1.125 C 18.0625 -0.0078125 15.941406 0.546875 13.515625 0.546875 Z M 13.5625 -5.625 C 15.050781 -5.625 16.25 -6.226562 17.15625 -7.4375 C 18.0625 -8.644531 18.515625 -10.351562 18.515625 -12.5625 C 18.515625 -14.71875 18.0625 -16.398438 17.15625 -17.609375 C 16.25 -18.816406 15.035156 -19.421875 13.515625 -19.421875 C 12.066406 -19.421875 10.875 -18.828125 9.9375 -17.640625 C 9 -16.460938 8.53125 -14.785156 8.53125 -12.609375 C 8.53125 -10.460938 9 -8.757812 9.9375 -7.5 C 10.875 -6.25 12.082031 -5.625 13.5625 -5.625 Z M 13.5625 -5.625 "/></g></g></g><g fill="#ffffff" fill-opacity="1"><g transform="translate(118.612263, 200.999987)"><g><path d="M 14.25 -28.765625 C 13.40625 -28.765625 12.75 -28.515625 12.28125 -28.015625 C 11.8125 -27.515625 11.578125 -26.691406 11.578125 -25.546875 L 11.578125 -25.046875 L 17.609375 -25.046875 L 17.609375 -19.1875 L 11.578125 -19.1875 L 11.578125 0 L 4.578125 0 L 4.578125 -19.1875 L 1.140625 -19.1875 L 1.140625 -25.046875 L 4.578125 -25.046875 L 4.578125 -25.953125 C 4.578125 -28.796875 5.328125 -30.96875 6.828125 -32.46875 C 8.328125 -33.96875 10.363281 -34.71875 12.9375 -34.71875 C 14.082031 -34.71875 15.128906 -34.644531 16.078125 -34.5 C 17.035156 -34.363281 17.847656 -34.191406 18.515625 -33.984375 L 17.78125 -28.453125 C 17.238281 -28.566406 16.671875 -28.644531 16.078125 -28.6875 C 15.492188 -28.738281 14.882812 -28.765625 14.25 -28.765625 Z M 14.25 -28.765625 "/></g></g></g><g fill="#ffffff" fill-opacity="1"><g transform="translate(149.557956, 200.999987)"><g><path d="M 18.65625 -11.703125 L 18.65625 -17.28125 L 28.125 -17.28125 L 28.09375 -3.171875 C 26.519531 -2.085938 24.769531 -1.195312 22.84375 -0.5 C 20.925781 0.195312 18.847656 0.546875 16.609375 0.546875 C 13.703125 0.546875 11.144531 -0.117188 8.9375 -1.453125 C 6.726562 -2.785156 5.007812 -4.675781 3.78125 -7.125 C 2.5625 -9.570312 1.953125 -12.472656 1.953125 -15.828125 C 1.953125 -19.398438 2.625 -22.40625 3.96875 -24.84375 C 5.3125 -27.28125 7.132812 -29.132812 9.4375 -30.40625 C 11.738281 -31.675781 14.3125 -32.3125 17.15625 -32.3125 C 18.757812 -32.3125 20.367188 -32.101562 21.984375 -31.6875 C 23.597656 -31.28125 25.191406 -30.640625 26.765625 -29.765625 L 24.453125 -23.6875 C 23.335938 -24.382812 22.148438 -24.90625 20.890625 -25.25 C 19.640625 -25.59375 18.46875 -25.765625 17.375 -25.765625 C 15.019531 -25.765625 13.113281 -24.957031 11.65625 -23.34375 C 10.207031 -21.726562 9.484375 -19.222656 9.484375 -15.828125 C 9.484375 -12.710938 10.140625 -10.28125 11.453125 -8.53125 C 12.773438 -6.78125 14.582031 -5.90625 16.875 -5.90625 C 18.03125 -5.90625 18.910156 -6 19.515625 -6.1875 C 20.117188 -6.382812 20.707031 -6.632812 21.28125 -6.9375 L 21.28125 -11.703125 Z M 18.65625 -11.703125 "/></g></g></g><g fill="#ffffff" fill-opacity="1"><g transform="translate(179.550778, 200.999987)"><g><path d="M 9.578125 0 L 2.59375 0 L 2.59375 -33.484375 L 9.578125 -33.484375 Z M 9.578125 0 "/></g></g></g><g fill="#ffffff" fill-opacity="1"><g transform="translate(191.665882, 200.999987)"><g><path d="M 13.515625 0.546875 C 11.160156 0.546875 9.070312 0.00390625 7.25 -1.078125 C 5.4375 -2.171875 4.015625 -3.703125 2.984375 -5.671875 C 1.960938 -7.640625 1.453125 -9.9375 1.453125 -12.5625 C 1.453125 -15.132812 1.957031 -17.394531 2.96875 -19.34375 C 3.976562 -21.300781 5.398438 -22.832031 7.234375 -23.9375 C 9.066406 -25.039062 11.175781 -25.59375 13.5625 -25.59375 C 15.925781 -25.59375 18.015625 -25.054688 19.828125 -23.984375 C 21.640625 -22.910156 23.0625 -21.40625 24.09375 -19.46875 C 25.125 -17.53125 25.640625 -15.242188 25.640625 -12.609375 C 25.640625 -10.035156 25.128906 -7.757812 24.109375 -5.78125 C 23.097656 -3.800781 21.6875 -2.25 19.875 -1.125 C 18.0625 -0.0078125 15.941406 0.546875 13.515625 0.546875 Z M 13.5625 -5.625 C 15.050781 -5.625 16.25 -6.226562 17.15625 -7.4375 C 18.0625 -8.644531 18.515625 -10.351562 18.515625 -12.5625 C 18.515625 -14.71875 18.0625 -16.398438 17.15625 -17.609375 C 16.25 -18.816406 15.035156 -19.421875 13.515625 -19.421875 C 12.066406 -19.421875 10.875 -18.828125 9.9375 -17.640625 C 9 -16.460938 8.53125 -14.785156 8.53125 -12.609375 C 8.53125 -10.460938 9 -8.757812 9.9375 -7.5 C 10.875 -6.25 12.082031 -5.625 13.5625 -5.625 Z M 13.5625 -5.625 "/></g></g></g><g fill="#ffffff" fill-opacity="1"><g transform="translate(218.75471, 200.999987)"><g><path d="M 16.46875 0.546875 C 15.164062 0.546875 13.914062 0.304688 12.71875 -0.171875 C 11.53125 -0.660156 10.484375 -1.4375 9.578125 -2.5 L 9.578125 0 L 2.59375 0 L 2.59375 -33.484375 L 9.578125 -33.484375 L 9.578125 -22.546875 C 10.484375 -23.640625 11.515625 -24.421875 12.671875 -24.890625 C 13.835938 -25.359375 15.070312 -25.59375 16.375 -25.59375 C 18.34375 -25.59375 20.082031 -25.078125 21.59375 -24.046875 C 23.113281 -23.015625 24.300781 -21.53125 25.15625 -19.59375 C 26.019531 -17.664062 26.453125 -15.335938 26.453125 -12.609375 C 26.453125 -9.890625 26.019531 -7.546875 25.15625 -5.578125 C 24.300781 -3.609375 23.113281 -2.09375 21.59375 -1.03125 C 20.082031 0.0195312 18.375 0.546875 16.46875 0.546875 Z M 14.609375 -5.578125 C 16.035156 -5.578125 17.1875 -6.164062 18.0625 -7.34375 C 18.9375 -8.53125 19.375 -10.285156 19.375 -12.609375 C 19.375 -14.847656 18.9375 -16.539062 18.0625 -17.6875 C 17.1875 -18.84375 16.035156 -19.421875 14.609375 -19.421875 C 13.523438 -19.421875 12.601562 -19.101562 11.84375 -18.46875 C 11.082031 -17.832031 10.515625 -16.984375 10.140625 -15.921875 C 9.765625 -14.867188 9.578125 -13.722656 9.578125 -12.484375 C 9.578125 -11.265625 9.769531 -10.132812 10.15625 -9.09375 C 10.550781 -8.050781 11.117188 -7.203125 11.859375 -6.546875 C 12.609375 -5.898438 13.523438 -5.578125 14.609375 -5.578125 Z M 14.609375 -5.578125 "/></g></g></g><g fill="#ffffff" fill-opacity="1"><g transform="translate(246.66029, 200.999987)"><g><path d="M 11.484375 -25.59375 C 15.328125 -25.59375 18.101562 -24.660156 19.8125 -22.796875 C 21.519531 -20.941406 22.375 -18.394531 22.375 -15.15625 L 22.375 0 L 15.421875 0 L 15.421875 -3.078125 C 14.785156 -1.960938 13.882812 -1.078125 12.71875 -0.421875 C 11.5625 0.222656 10.179688 0.546875 8.578125 0.546875 C 7.148438 0.546875 5.867188 0.222656 4.734375 -0.421875 C 3.609375 -1.078125 2.710938 -2 2.046875 -3.1875 C 1.378906 -4.382812 1.046875 -5.800781 1.046875 -7.4375 C 1.046875 -9.769531 1.75 -11.609375 3.15625 -12.953125 C 4.5625 -14.296875 6.773438 -14.96875 9.796875 -14.96875 C 10.703125 -14.96875 11.671875 -14.9375 12.703125 -14.875 C 13.734375 -14.820312 14.640625 -14.765625 15.421875 -14.703125 L 15.421875 -15.25 C 15.421875 -16.664062 15.019531 -17.765625 14.21875 -18.546875 C 13.414062 -19.335938 12.21875 -19.734375 10.625 -19.734375 C 9.5 -19.734375 8.367188 -19.613281 7.234375 -19.375 C 6.097656 -19.132812 5.0625 -18.816406 4.125 -18.421875 L 3.453125 -24.234375 C 4.597656 -24.648438 5.847656 -24.976562 7.203125 -25.21875 C 8.566406 -25.46875 9.992188 -25.59375 11.484375 -25.59375 Z M 10.984375 -5.171875 C 13.941406 -5.171875 15.421875 -6.972656 15.421875 -10.578125 L 15.421875 -10.65625 C 14.847656 -10.71875 14.257812 -10.769531 13.65625 -10.8125 C 13.050781 -10.863281 12.367188 -10.890625 11.609375 -10.890625 C 10.222656 -10.890625 9.226562 -10.671875 8.625 -10.234375 C 8.019531 -9.796875 7.71875 -9.078125 7.71875 -8.078125 C 7.71875 -7.265625 8.007812 -6.578125 8.59375 -6.015625 C 9.1875 -5.453125 9.984375 -5.171875 10.984375 -5.171875 Z M 10.984375 -5.171875 "/></g></g></g><g fill="#ffffff" fill-opacity="1"><g transform="translate(271.344256, 200.999987)"><g><path d="M 9.578125 0 L 2.59375 0 L 2.59375 -33.484375 L 9.578125 -33.484375 Z M 9.578125 0 "/></g></g></g><g fill="#ffffff" fill-opacity="1"><g transform="translate(42.164064, 264.749983)"><g><path d="M 12.296875 0.640625 C 8.148438 0.640625 4.503906 -0.144531 1.359375 -1.71875 L 2.046875 -8.078125 C 2.984375 -7.585938 4.023438 -7.171875 5.171875 -6.828125 C 6.316406 -6.484375 7.472656 -6.21875 8.640625 -6.03125 C 9.804688 -5.851562 10.859375 -5.765625 11.796875 -5.765625 C 13.191406 -5.765625 14.359375 -5.972656 15.296875 -6.390625 C 16.234375 -6.816406 16.703125 -7.632812 16.703125 -8.84375 C 16.703125 -10 16.238281 -10.882812 15.3125 -11.5 C 14.394531 -12.125 13.085938 -12.738281 11.390625 -13.34375 C 8.390625 -14.21875 6.019531 -15.375 4.28125 -16.8125 C 2.539062 -18.25 1.671875 -20.269531 1.671875 -22.875 C 1.671875 -24.925781 2.191406 -26.65625 3.234375 -28.0625 C 4.285156 -29.46875 5.695312 -30.523438 7.46875 -31.234375 C 9.238281 -31.953125 11.179688 -32.3125 13.296875 -32.3125 C 14.898438 -32.3125 16.523438 -32.148438 18.171875 -31.828125 C 19.816406 -31.515625 21.382812 -31.023438 22.875 -30.359375 L 21.96875 -23.953125 C 18.90625 -25.285156 16.164062 -25.953125 13.75 -25.953125 C 12.476562 -25.953125 11.429688 -25.75 10.609375 -25.34375 C 9.796875 -24.9375 9.390625 -24.15625 9.390625 -23 C 9.390625 -22.03125 9.789062 -21.242188 10.59375 -20.640625 C 11.394531 -20.035156 12.671875 -19.429688 14.421875 -18.828125 C 17.484375 -17.921875 19.910156 -16.71875 21.703125 -15.21875 C 23.503906 -13.726562 24.40625 -11.632812 24.40625 -8.9375 C 24.40625 -6.882812 23.867188 -5.144531 22.796875 -3.71875 C 21.722656 -2.300781 20.269531 -1.21875 18.4375 -0.46875 C 16.613281 0.269531 14.566406 0.640625 12.296875 0.640625 Z M 12.296875 0.640625 "/></g></g></g><g fill="#ffffff" fill-opacity="1"><g transform="translate(67.664772, 264.749983)"><g><path d="M 17.421875 -9.53125 L 17.421875 -25.046875 L 24.40625 -25.046875 L 24.40625 0 L 17.421875 0 L 17.421875 -3.171875 C 16.691406 -2.054688 15.742188 -1.15625 14.578125 -0.46875 C 13.421875 0.207031 12.054688 0.546875 10.484375 0.546875 C 7.941406 0.546875 5.9375 -0.269531 4.46875 -1.90625 C 3 -3.539062 2.265625 -5.914062 2.265625 -9.03125 L 2.265625 -25.046875 L 9.296875 -25.046875 L 9.296875 -10.03125 C 9.296875 -7.1875 10.476562 -5.765625 12.84375 -5.765625 C 13.875 -5.765625 14.796875 -6.109375 15.609375 -6.796875 C 16.421875 -7.492188 17.023438 -8.40625 17.421875 -9.53125 Z M 17.421875 -9.53125 "/></g></g></g><g fill="#ffffff" fill-opacity="1"><g transform="translate(94.617484, 264.749983)"><g><path d="M 10.078125 0.5 C 8.316406 0.5 6.703125 0.347656 5.234375 0.046875 C 3.773438 -0.253906 2.363281 -0.691406 1 -1.265625 L 2 -7.21875 C 3.269531 -6.582031 4.613281 -6.097656 6.03125 -5.765625 C 7.457031 -5.429688 8.820312 -5.265625 10.125 -5.265625 C 11 -5.265625 11.742188 -5.40625 12.359375 -5.6875 C 12.984375 -5.976562 13.28125 -6.503906 13.25 -7.265625 C 13.25 -7.929688 12.929688 -8.472656 12.296875 -8.890625 C 11.660156 -9.316406 10.554688 -9.769531 8.984375 -10.25 C 6.265625 -10.945312 4.296875 -11.867188 3.078125 -13.015625 C 1.867188 -14.171875 1.265625 -15.757812 1.265625 -17.78125 C 1.296875 -19.539062 1.75 -20.992188 2.625 -22.140625 C 3.507812 -23.296875 4.675781 -24.160156 6.125 -24.734375 C 7.570312 -25.304688 9.175781 -25.59375 10.9375 -25.59375 C 12.351562 -25.59375 13.734375 -25.441406 15.078125 -25.140625 C 16.429688 -24.835938 17.695312 -24.472656 18.875 -24.046875 L 17.96875 -18.203125 C 16.9375 -18.710938 15.785156 -19.109375 14.515625 -19.390625 C 13.242188 -19.679688 12.019531 -19.828125 10.84375 -19.828125 C 9 -19.828125 8.078125 -19.238281 8.078125 -18.0625 C 8.078125 -17.457031 8.363281 -16.929688 8.9375 -16.484375 C 9.507812 -16.046875 10.539062 -15.617188 12.03125 -15.203125 C 14.894531 -14.359375 16.953125 -13.320312 18.203125 -12.09375 C 19.460938 -10.863281 20.09375 -9.269531 20.09375 -7.3125 C 20.09375 -5.582031 19.65625 -4.140625 18.78125 -2.984375 C 17.90625 -1.835938 16.710938 -0.96875 15.203125 -0.375 C 13.691406 0.207031 11.984375 0.5 10.078125 0.5 Z M 10.078125 0.5 "/></g></g></g><g fill="#ffffff" fill-opacity="1"><g transform="translate(115.762204, 264.749983)"><g><path d="M 11.890625 0.546875 C 9.347656 0.546875 7.394531 -0.140625 6.03125 -1.515625 C 4.675781 -2.890625 4 -4.957031 4 -7.71875 L 4 -19.1875 L 1.1875 -19.1875 L 1.1875 -22.375 L 3.625 -25.1875 L 8.171875 -30.484375 L 10.9375 -30.484375 L 10.9375 -25.046875 L 17.46875 -25.046875 L 17.46875 -19.1875 L 10.9375 -19.1875 L 10.9375 -8.578125 C 10.9375 -7.640625 11.144531 -6.910156 11.5625 -6.390625 C 11.988281 -5.878906 12.613281 -5.625 13.4375 -5.625 C 14.425781 -5.625 15.570312 -5.878906 16.875 -6.390625 L 18.109375 -0.859375 C 17.078125 -0.378906 16.023438 -0.0234375 14.953125 0.203125 C 13.878906 0.429688 12.859375 0.546875 11.890625 0.546875 Z M 11.890625 0.546875 "/></g></g></g><g fill="#ffffff" fill-opacity="1"><g transform="translate(135.04655, 264.749983)"><g><path d="M 11.484375 -25.59375 C 15.328125 -25.59375 18.101562 -24.660156 19.8125 -22.796875 C 21.519531 -20.941406 22.375 -18.394531 22.375 -15.15625 L 22.375 0 L 15.421875 0 L 15.421875 -3.078125 C 14.785156 -1.960938 13.882812 -1.078125 12.71875 -0.421875 C 11.5625 0.222656 10.179688 0.546875 8.578125 0.546875 C 7.148438 0.546875 5.867188 0.222656 4.734375 -0.421875 C 3.609375 -1.078125 2.710938 -2 2.046875 -3.1875 C 1.378906 -4.382812 1.046875 -5.800781 1.046875 -7.4375 C 1.046875 -9.769531 1.75 -11.609375 3.15625 -12.953125 C 4.5625 -14.296875 6.773438 -14.96875 9.796875 -14.96875 C 10.703125 -14.96875 11.671875 -14.9375 12.703125 -14.875 C 13.734375 -14.820312 14.640625 -14.765625 15.421875 -14.703125 L 15.421875 -15.25 C 15.421875 -16.664062 15.019531 -17.765625 14.21875 -18.546875 C 13.414062 -19.335938 12.21875 -19.734375 10.625 -19.734375 C 9.5 -19.734375 8.367188 -19.613281 7.234375 -19.375 C 6.097656 -19.132812 5.0625 -18.816406 4.125 -18.421875 L 3.453125 -24.234375 C 4.597656 -24.648438 5.847656 -24.976562 7.203125 -25.21875 C 8.566406 -25.46875 9.992188 -25.59375 11.484375 -25.59375 Z M 10.984375 -5.171875 C 13.941406 -5.171875 15.421875 -6.972656 15.421875 -10.578125 L 15.421875 -10.65625 C 14.847656 -10.71875 14.257812 -10.769531 13.65625 -10.8125 C 13.050781 -10.863281 12.367188 -10.890625 11.609375 -10.890625 C 10.222656 -10.890625 9.226562 -10.671875 8.625 -10.234375 C 8.019531 -9.796875 7.71875 -9.078125 7.71875 -8.078125 C 7.71875 -7.265625 8.007812 -6.578125 8.59375 -6.015625 C 9.1875 -5.453125 9.984375 -5.171875 10.984375 -5.171875 Z M 10.984375 -5.171875 "/></g></g></g><g fill="#ffffff" fill-opacity="1"><g transform="translate(159.730517, 264.749983)"><g><path d="M 9.671875 -27.859375 L 2.40625 -27.859375 L 2.40625 -33.671875 L 9.671875 -33.671875 Z M 9.578125 0 L 2.546875 0 L 2.546875 -25.046875 L 9.578125 -25.046875 Z M 9.578125 0 "/></g></g></g><g fill="#ffffff" fill-opacity="1"><g transform="translate(171.800245, 264.749983)"><g><path d="M 16.46875 -25.59375 C 19.039062 -25.59375 21.050781 -24.773438 22.5 -23.140625 C 23.957031 -21.503906 24.6875 -19.128906 24.6875 -16.015625 L 24.6875 0 L 17.703125 0 L 17.703125 -15.015625 C 17.703125 -17.828125 16.503906 -19.234375 14.109375 -19.234375 C 13.078125 -19.234375 12.160156 -18.894531 11.359375 -18.21875 C 10.554688 -17.539062 9.945312 -16.625 9.53125 -15.46875 L 9.53125 0 L 2.546875 0 L 2.546875 -25.046875 L 9.53125 -25.046875 L 9.53125 -21.875 C 10.257812 -22.957031 11.203125 -23.847656 12.359375 -24.546875 C 13.523438 -25.242188 14.894531 -25.59375 16.46875 -25.59375 Z M 16.46875 -25.59375 "/></g></g></g><g fill="#ffffff" fill-opacity="1"><g transform="translate(198.752956, 264.749983)"><g><path d="M 11.484375 -25.59375 C 15.328125 -25.59375 18.101562 -24.660156 19.8125 -22.796875 C 21.519531 -20.941406 22.375 -18.394531 22.375 -15.15625 L 22.375 0 L 15.421875 0 L 15.421875 -3.078125 C 14.785156 -1.960938 13.882812 -1.078125 12.71875 -0.421875 C 11.5625 0.222656 10.179688 0.546875 8.578125 0.546875 C 7.148438 0.546875 5.867188 0.222656 4.734375 -0.421875 C 3.609375 -1.078125 2.710938 -2 2.046875 -3.1875 C 1.378906 -4.382812 1.046875 -5.800781 1.046875 -7.4375 C 1.046875 -9.769531 1.75 -11.609375 3.15625 -12.953125 C 4.5625 -14.296875 6.773438 -14.96875 9.796875 -14.96875 C 10.703125 -14.96875 11.671875 -14.9375 12.703125 -14.875 C 13.734375 -14.820312 14.640625 -14.765625 15.421875 -14.703125 L 15.421875 -15.25 C 15.421875 -16.664062 15.019531 -17.765625 14.21875 -18.546875 C 13.414062 -19.335938 12.21875 -19.734375 10.625 -19.734375 C 9.5 -19.734375 8.367188 -19.613281 7.234375 -19.375 C 6.097656 -19.132812 5.0625 -18.816406 4.125 -18.421875 L 3.453125 -24.234375 C 4.597656 -24.648438 5.847656 -24.976562 7.203125 -25.21875 C 8.566406 -25.46875 9.992188 -25.59375 11.484375 -25.59375 Z M 10.984375 -5.171875 C 13.941406 -5.171875 15.421875 -6.972656 15.421875 -10.578125 L 15.421875 -10.65625 C 14.847656 -10.71875 14.257812 -10.769531 13.65625 -10.8125 C 13.050781 -10.863281 12.367188 -10.890625 11.609375 -10.890625 C 10.222656 -10.890625 9.226562 -10.671875 8.625 -10.234375 C 8.019531 -9.796875 7.71875 -9.078125 7.71875 -8.078125 C 7.71875 -7.265625 8.007812 -6.578125 8.59375 -6.015625 C 9.1875 -5.453125 9.984375 -5.171875 10.984375 -5.171875 Z M 10.984375 -5.171875 "/></g></g></g><g fill="#ffffff" fill-opacity="1"><g transform="translate(223.436922, 264.749983)"><g><path d="M 16.46875 0.546875 C 15.164062 0.546875 13.914062 0.304688 12.71875 -0.171875 C 11.53125 -0.660156 10.484375 -1.4375 9.578125 -2.5 L 9.578125 0 L 2.59375 0 L 2.59375 -33.484375 L 9.578125 -33.484375 L 9.578125 -22.546875 C 10.484375 -23.640625 11.515625 -24.421875 12.671875 -24.890625 C 13.835938 -25.359375 15.070312 -25.59375 16.375 -25.59375 C 18.34375 -25.59375 20.082031 -25.078125 21.59375 -24.046875 C 23.113281 -23.015625 24.300781 -21.53125 25.15625 -19.59375 C 26.019531 -17.664062 26.453125 -15.335938 26.453125 -12.609375 C 26.453125 -9.890625 26.019531 -7.546875 25.15625 -5.578125 C 24.300781 -3.609375 23.113281 -2.09375 21.59375 -1.03125 C 20.082031 0.0195312 18.375 0.546875 16.46875 0.546875 Z M 14.609375 -5.578125 C 16.035156 -5.578125 17.1875 -6.164062 18.0625 -7.34375 C 18.9375 -8.53125 19.375 -10.285156 19.375 -12.609375 C 19.375 -14.847656 18.9375 -16.539062 18.0625 -17.6875 C 17.1875 -18.84375 16.035156 -19.421875 14.609375 -19.421875 C 13.523438 -19.421875 12.601562 -19.101562 11.84375 -18.46875 C 11.082031 -17.832031 10.515625 -16.984375 10.140625 -15.921875 C 9.765625 -14.867188 9.578125 -13.722656 9.578125 -12.484375 C 9.578125 -11.265625 9.769531 -10.132812 10.15625 -9.09375 C 10.550781 -8.050781 11.117188 -7.203125 11.859375 -6.546875 C 12.609375 -5.898438 13.523438 -5.578125 14.609375 -5.578125 Z M 14.609375 -5.578125 "/></g></g></g><g fill="#ffffff" fill-opacity="1"><g transform="translate(251.342503, 264.749983)"><g><path d="M 9.671875 -27.859375 L 2.40625 -27.859375 L 2.40625 -33.671875 L 9.671875 -33.671875 Z M 9.578125 0 L 2.546875 0 L 2.546875 -25.046875 L 9.578125 -25.046875 Z M 9.578125 0 "/></g></g></g><g fill="#ffffff" fill-opacity="1"><g transform="translate(263.412219, 264.749983)"><g><path d="M 9.578125 0 L 2.59375 0 L 2.59375 -33.484375 L 9.578125 -33.484375 Z M 9.578125 0 "/></g></g></g><g fill="#ffffff" fill-opacity="1"><g transform="translate(275.527323, 264.749983)"><g><path d="M 9.671875 -27.859375 L 2.40625 -27.859375 L 2.40625 -33.671875 L 9.671875 -33.671875 Z M 9.578125 0 L 2.546875 0 L 2.546875 -25.046875 L 9.578125 -25.046875 Z M 9.578125 0 "/></g></g></g><g fill="#ffffff" fill-opacity="1"><g transform="translate(287.597063, 264.749983)"><g><path d="M 11.890625 0.546875 C 9.347656 0.546875 7.394531 -0.140625 6.03125 -1.515625 C 4.675781 -2.890625 4 -4.957031 4 -7.71875 L 4 -19.1875 L 1.1875 -19.1875 L 1.1875 -22.375 L 3.625 -25.1875 L 8.171875 -30.484375 L 10.9375 -30.484375 L 10.9375 -25.046875 L 17.46875 -25.046875 L 17.46875 -19.1875 L 10.9375 -19.1875 L 10.9375 -8.578125 C 10.9375 -7.640625 11.144531 -6.910156 11.5625 -6.390625 C 11.988281 -5.878906 12.613281 -5.625 13.4375 -5.625 C 14.425781 -5.625 15.570312 -5.878906 16.875 -6.390625 L 18.109375 -0.859375 C 17.078125 -0.378906 16.023438 -0.0234375 14.953125 0.203125 C 13.878906 0.429688 12.859375 0.546875 11.890625 0.546875 Z M 11.890625 0.546875 "/></g></g></g><g fill="#ffffff" fill-opacity="1"><g transform="translate(306.881409, 264.749983)"><g><path d="M 12.984375 -7.84375 L 18.109375 -25.046875 L 25.40625 -25.046875 L 16.609375 0 L 13.9375 7.765625 L 6.765625 7.765625 L 9.484375 0.234375 L 0.59375 -25.046875 L 7.890625 -25.046875 L 12.9375 -7.84375 Z M 12.984375 -7.84375 "/></g></g></g></svg>